<?xml version="1.0" encoding="UTF-8"?>
<svg width="88px" height="88px" viewBox="0 0 88 88" version="1.1" xmlns="http://www.w3.org/2000/svg" xmlns:xlink="http://www.w3.org/1999/xlink">
    <!-- Generator: Sketch 42 (36781) - http://www.bohemiancoding.com/sketch -->
    <title>f-face</title>
    <desc>Created with Sketch.</desc>
    <defs>
        <ellipse id="path-1" cx="44" cy="44" rx="44" ry="44"></ellipse>
        <mask id="mask-2" maskContentUnits="userSpaceOnUse" maskUnits="objectBoundingBox" x="0" y="0" width="88" height="88" fill="white">
            <use xlink:href="#path-1"></use>
        </mask>
    </defs>
    <g id="visuals" stroke="none" stroke-width="1" fill="none" fill-rule="evenodd">
        <g id="Umojis" transform="translate(-830.000000, -148.000000)">
            <g id="f-face" transform="translate(830.000000, 148.000000)">
                <use stroke="#2E3D49" mask="url(#mask-2)" stroke-width="8" fill="#F46F6E" xlink:href="#path-1"></use>
                <path d="M26.7210302,28.5118151 C26.0602899,29.3593814 25.6666667,30.4253895 25.6666667,31.5833333 C25.6666667,34.3447571 27.9052429,36.5833333 30.6666667,36.5833333 C33.4280904,36.5833333 35.6666667,34.3447571 35.6666667,31.5833333 C35.6666667,30.800267 35.4866541,30.0592449 35.1657531,29.3993912 L37.1476922,29.6077014 C38.2411549,29.7226289 39.2203746,28.9329296 39.3366385,27.8267524 C39.4520975,26.7282338 38.6524036,25.7438198 37.5658061,25.6296138 L21.6351469,23.9552341 C20.5416842,23.8403065 19.5624645,24.6300059 19.4462006,25.7361831 C19.3307417,26.8347016 20.1304356,27.8191156 21.217033,27.9333216 L26.7210302,28.5118151 Z M52.7446796,29.4122566 C52.4276822,30.068871 52.25,30.8053522 52.25,31.5833333 C52.25,34.3447571 54.4885763,36.5833333 57.25,36.5833333 C60.0114237,36.5833333 62.25,34.3447571 62.25,31.5833333 C62.25,30.4305242 61.8598599,29.3688372 61.2044105,28.5231031 L66.8158061,27.9333216 C67.9024036,27.8191156 68.7020975,26.8347016 68.5866385,25.7361831 C68.4703746,24.6300059 67.4911549,23.8403065 66.3976922,23.9552341 L50.467033,25.6296138 C49.3804356,25.7438198 48.5807417,26.7282338 48.6962006,27.8267524 C48.8124645,28.9329296 49.7916842,29.7226289 50.8851469,29.6077014 L52.7446796,29.4122566 Z" id="f-eyes" fill="#2E3D49"></path>
                <path d="M1.83333333,56.8353799 C7.38612584,74.7764063 24.1076803,87.8093025 43.8732307,87.8093025 C63.6387812,87.8093025 80.3603356,74.7764063 85.9131281,56.8353799 C81.8669499,56.6110434 70.6239271,74.9759692 43.8732307,74.9759692 C17.1225344,74.9759692 5.87951151,56.6110434 1.83333074,56.8353719 Z" id="f-s-1" fill="#000000" opacity="0.08"></path>
                <ellipse id="f-s-2" fill="#000000" opacity="0.16" cx="43.6666667" cy="56.3333333" rx="7" ry="5"></ellipse>
                <path d="M29.3333333,44 C29.3333333,44 33.0431925,51.3333333 44,51.3333333 C54.9568075,51.3333333 58.6666667,44 58.6666667,44" id="f-mouth" stroke="#2E3D49" stroke-width="4" stroke-linecap="round" stroke-linejoin="round" transform="translate(44.000000, 47.666667) scale(1, -1) translate(-44.000000, -47.666667) "></path>
            </g>
        </g>
    </g>
</svg>